<?xml version="1.0" encoding="UTF-8" standalone="no"?>
<!DOCTYPE svg PUBLIC "-//W3C//DTD SVG 1.1//EN" "http://www.w3.org/Graphics/SVG/1.1/DTD/svg11.dtd">
<svg width="100%" height="100%" viewBox="0 0 71 34" version="1.1" xmlns="http://www.w3.org/2000/svg" xmlns:xlink="http://www.w3.org/1999/xlink" xml:space="preserve" xmlns:serif="http://www.serif.com/" style="fill-rule:evenodd;clip-rule:evenodd;stroke-linejoin:round;stroke-miterlimit:2;">
    <g transform="matrix(1,0,0,1,-58.6083,-40.878)">
        <g transform="matrix(-1,0,0,1,63.3353,74.7474)">
            <path d="M0,-9.452C2.61,-9.452 4.727,-7.336 4.727,-4.725C4.727,-2.115 2.61,0 0,0C-2.61,0 -4.727,-2.115 -4.727,-4.725C-4.727,-7.336 -2.61,-9.452 0,-9.452" style="fill-rule:nonzero;"/>
        </g>
        <g transform="matrix(-1,0,0,1,188.109,-1002.37)">
            <rect x="58.609" y="1043.25" width="70.891" height="7.877"/>
        </g>
        <g transform="matrix(-1,0,0,1,188.109,-977.163)">
            <rect x="58.609" y="1030.64" width="70.891" height="7.877"/>
        </g>
    </g>
</svg>
