<svg width="166" height="217" viewBox="0 0 166 217" fill="none" xmlns="http://www.w3.org/2000/svg">
<g opacity="0.3">
<path opacity="0.3" d="M140.38 49.88C134.913 49.8747 129.671 47.7006 125.805 43.8347C121.94 39.9689 119.765 34.7271 119.76 29.26V0.640015H27.6301C20.4905 0.640015 13.6432 3.47618 8.59473 8.52466C3.54625 13.5731 0.709961 20.4204 0.709961 27.5601V189.77C0.723206 196.901 3.56526 203.735 8.6123 208.773C13.6593 213.811 20.4992 216.64 27.6301 216.64H138.23C141.765 216.64 145.265 215.944 148.53 214.591C151.796 213.238 154.763 211.255 157.262 208.755C159.761 206.255 161.743 203.287 163.094 200.021C164.446 196.755 165.141 193.255 165.14 189.72V49.88H140.38Z" fill="#A140FF"/>
</g>
<path d="M165.14 49.88H140.38C134.913 49.8747 129.671 47.7006 125.805 43.8347C121.94 39.9689 119.765 34.7271 119.76 29.26V0.640015L165.14 49.88Z" fill="#A140FF"/>
<path fill-rule="evenodd" clip-rule="evenodd" d="M63.5469 80.4375C59.7914 80.4375 56.75 83.4825 56.75 87.2344V98.0731C55.2058 98.2652 53.6651 98.4719 52.1317 98.7039C46.861 99.4941 43.1562 104.08 43.1562 109.278V132.094C43.1562 134.978 44.302 137.744 46.3415 139.784C48.3809 141.823 51.147 142.969 54.0312 142.969H55.01L54.4481 149.149C54.3625 150.09 54.4738 151.038 54.775 151.933C55.0762 152.828 55.5606 153.651 56.1974 154.348C56.8342 155.046 57.6093 155.603 58.4734 155.984C59.3375 156.365 60.2716 156.562 61.216 156.562H95.784C96.7284 156.562 97.6625 156.365 98.5266 155.984C99.3907 155.603 100.166 155.046 100.803 154.348C101.439 153.651 101.924 152.828 102.225 151.933C102.526 151.038 102.638 150.09 102.552 149.149L101.99 142.969H102.969C105.853 142.969 108.619 141.823 110.659 139.784C112.698 137.744 113.844 134.978 113.844 132.094V109.278C113.844 104.08 110.139 99.4905 104.868 98.7039C103.332 98.4745 101.792 98.2655 100.25 98.0768V87.2344C100.25 83.4789 97.205 80.4375 93.4531 80.4375H63.5469ZM94.8125 97.4931V87.2344C94.8125 86.8738 94.6693 86.5281 94.4143 86.2732C94.1594 86.0182 93.8137 85.875 93.4531 85.875H63.5469C63.1863 85.875 62.8406 86.0182 62.5857 86.2732C62.3307 86.5281 62.1875 86.8738 62.1875 87.2344V97.4931C73.0398 96.4995 83.9602 96.4995 94.8125 97.4931ZM94.0259 127.454C94.6711 127.519 95.175 128.034 95.233 128.675L97.1398 149.642C97.1569 149.831 97.1346 150.02 97.0742 150.2C97.0138 150.379 96.9168 150.543 96.7892 150.683C96.6616 150.822 96.5063 150.934 96.3332 151.01C96.1601 151.086 95.9731 151.125 95.784 151.125H61.216C61.0269 151.125 60.8399 151.086 60.6668 151.01C60.4937 150.934 60.3384 150.822 60.2108 150.683C60.0832 150.543 59.9862 150.379 59.9258 150.2C59.8654 150.02 59.8431 149.831 59.8602 149.642L61.767 128.675C61.7956 128.363 61.9315 128.071 62.1517 127.848C62.3719 127.625 62.6626 127.486 62.9741 127.454C73.2973 126.389 83.7027 126.389 94.0259 127.454ZM97.5312 113.062C97.5312 112.341 97.8177 111.65 98.3276 111.14C98.8374 110.63 99.5289 110.344 100.25 110.344H100.279C101 110.344 101.692 110.63 102.201 111.14C102.711 111.65 102.998 112.341 102.998 113.062V113.092C102.998 113.813 102.711 114.504 102.201 115.014C101.692 115.524 101 115.81 100.279 115.81H100.25C99.5289 115.81 98.8374 115.524 98.3276 115.014C97.8177 114.504 97.5312 113.813 97.5312 113.092V113.062ZM89.375 110.344C88.6539 110.344 87.9624 110.63 87.4526 111.14C86.9427 111.65 86.6562 112.341 86.6562 113.062V113.092C86.6562 114.592 87.8742 115.81 89.375 115.81H89.404C90.1251 115.81 90.8166 115.524 91.3264 115.014C91.8363 114.504 92.1228 113.813 92.1228 113.092V113.062C92.1228 112.341 91.8363 111.65 91.3264 111.14C90.8166 110.63 90.1251 110.344 89.404 110.344H89.375Z" fill="#A140FF"/>
</svg>